# xmcd CD database file
#
# Track frame offsets:
#	150
#	42555
#	88925
#	124302
#	168737
#	187834
#	218592
#
# Disc length: 3232 seconds
#
# Revision: 0
# Processed by: cddbd v1.5.2PL0 Copyright (c) Steve Scherf et al.
# Submitted via: CDex 1.70beta2
#
DISCID=620c9e07
DTITLE=Rick Germanson - Live at Smalls
DYEAR=2011
DGENRE=Jazz
TTITLE0=So Tired
TTITLE1=Surrey with the Fringe on Top
TTITLE2=Shorter Waltz
TTITLE3=Interloper
TTITLE4=The Single Petal of a Rose
TTITLE5=Say it (Over and Over Again)
TTITLE6=Edge
EXTD=YEAR: 2011
EXTT0=
EXTT1=
EXTT2=
EXTT3=
EXTT4=
EXTT5=
EXTT6=
PLAYORDER=
